<svg xmlns="http://www.w3.org/2000/svg" version="1.1" xmlns:xlink="http://www.w3.org/1999/xlink"
                            width="512" height="512" x="0" y="0" viewBox="0 0 511.611 511.611"
                            style="enable-background:new 0 0 512 512" xml:space="preserve" class="">
                            <g>
                                <path
                                    d="M478.934 411.108h-3.164v-239.74c0-9.583-7.796-17.379-17.379-17.379h-11.093a546.66 546.66 0 0 0 37.163-45.34l4.947 3.665a12.901 12.901 0 0 0 13.36 1.243 12.903 12.903 0 0 0 7.284-11.268l1.553-53.57c.122-4.229-1.835-8.258-5.235-10.776s-7.823-3.214-11.832-1.865L443.746 53.17c-4.585 1.542-7.903 5.469-8.658 10.248s1.191 9.538 5.08 12.42l8.13 6.022a508.56 508.56 0 0 1-23.186 29.326 7.5 7.5 0 1 0 11.415 9.73 522.659 522.659 0 0 0 28.301-36.334 7.501 7.501 0 0 0-1.651-10.368l-10.914-8.085 44.262-14.894-1.354 46.681-7.882-5.839a7.5 7.5 0 0 0-10.576 1.678c-49.2 69.144-115.076 126.264-190.508 165.188-75.489 38.953-160.287 59.542-245.227 59.542H22.5c-4.136 0-7.5-3.364-7.5-7.5s3.364-7.5 7.5-7.5h18.48c70.416 0 138.957-13.992 203.719-41.589 64.271-27.387 121.461-66.722 169.981-116.91a7.5 7.5 0 1 0-10.784-10.425 505.472 505.472 0 0 1-60.329 53.234c-.036 0-.07-.005-.106-.005h-59.836c-9.583 0-17.379 7.796-17.379 17.378v30.269a510.707 510.707 0 0 1-20.336 9.569V234.36c0-9.583-7.796-17.379-17.378-17.379h-59.836c-9.583 0-17.378 7.796-17.378 17.379v41.966a500.28 500.28 0 0 1-20.337 4.121v-22.295c0-9.583-7.796-17.379-17.378-17.379H53.765c-9.583 0-17.378 7.796-17.378 17.379v30.333H22.5c-12.407 0-22.5 10.094-22.5 22.5s10.093 22.5 22.5 22.5h13.886v77.623H32.35c-17.463 0-31.67 14.207-31.67 31.669v20.552c0 7.102 5.778 12.88 12.88 12.88h484.164c7.102 0 12.88-5.778 12.88-12.88v-20.552c0-17.462-14.208-31.669-31.67-31.669zM281.246 205.167a2.38 2.38 0 0 1 2.379-2.378h38.817a501.357 501.357 0 0 1-41.196 24.863zm-114.93 29.193a2.381 2.381 0 0 1 2.378-2.379h59.836a2.38 2.38 0 0 1 2.378 2.379v17.02c-21.152 8.6-42.705 15.726-64.593 21.348V234.36zM53.765 255.773h59.836a2.38 2.38 0 0 1 2.378 2.379v24.775a505.248 505.248 0 0 1-64.593 5.443v-30.219a2.381 2.381 0 0 1 2.379-2.378zM433.1 168.989h25.291a2.381 2.381 0 0 1 2.379 2.379v239.74h-64.594V203.235a554.186 554.186 0 0 0 36.924-34.246zM293.085 272.273a545.808 545.808 0 0 0 52.754-31.113v79.87c0 4.143 3.358 7.5 7.5 7.5s7.5-3.357 7.5-7.5v-90.232a552.789 552.789 0 0 0 20.336-15.301v195.611H360.84v-58.096c0-4.143-3.358-7.5-7.5-7.5s-7.5 3.357-7.5 7.5v58.096h-64.594V278.184a543.825 543.825 0 0 0 11.839-5.911zM166.316 318.92a553.826 553.826 0 0 0 64.593-19.343v111.531h-64.593zm79.594-25.103a546.808 546.808 0 0 0 20.336-8.631v125.922H245.91zM51.386 333.373a547.88 547.88 0 0 0 64.593-5.084v24.859c0 4.143 3.358 7.5 7.5 7.5s7.5-3.357 7.5-7.5v-27.14a552.318 552.318 0 0 0 20.337-3.792v88.892h-20.337v-25.977c0-4.143-3.358-7.5-7.5-7.5s-7.5 3.357-7.5 7.5v25.977H51.386zm444.218 127.836H15.68v-18.432c0-9.191 7.478-16.669 16.67-16.669h446.584c9.192 0 16.67 7.478 16.67 16.669z"
                                    fill="#000000" opacity="1" data-original="#000000" class=""></path>
                            </g>
                        </svg>