<svg xmlns="http://www.w3.org/2000/svg" version="1.1" xmlns:xlink="http://www.w3.org/1999/xlink"
                            width="512" height="512" x="0" y="0" viewBox="0 0 64 64"
                            style="enable-background:new 0 0 512 512" xml:space="preserve" class="">
                            <g>
                                <g data-name="media-monitor-screen-Digital Marketing">
                                    <path
                                        d="M59 15h-2v-1h1a3 3 0 0 0 0-6h-1V3a.968.968 0 0 0-.41-.8.991.991 0 0 0-.88-.16L42.85 6H36a1 1 0 0 0-1 1v1h-2a1 1 0 0 0-1 1v4a1 1 0 0 0 1 1h2v1h-6V6a1 1 0 0 0-1-1H8a1 1 0 0 0-1 1v9H5a3.009 3.009 0 0 0-3 3v32a3.009 3.009 0 0 0 3 3h23v3h-6a1 1 0 0 0-1 1v4a1 1 0 0 0 1 1h20a1 1 0 0 0 1-1v-4a1 1 0 0 0-1-1h-6v-3h23a3.009 3.009 0 0 0 3-3V18a3.009 3.009 0 0 0-3-3zm-2-5h1a1 1 0 0 1 0 2h-1zM44 7.74l11-3.39v13.3l-11-3.39zM37 8h5v6h-5zm2.85 8-.72 5H38v-5zM34 12v-2h1v2zM9 7h18v14H9zm32 51v2H23v-2zm-11-2v-3h4v3zm30-6a1 1 0 0 1-1 1H5a1 1 0 0 1-1-1v-1h56zm0-3H4V18a1 1 0 0 1 1-1h2v5a1 1 0 0 0 1 1h20a1 1 0 0 0 1-1v-5h7v5a1 1 0 0 0 1 1h3a1 1 0 0 0 .99-.86l.88-6.14h.98l12.86 3.96A.925.925 0 0 0 56 20a1.015 1.015 0 0 0 1-1v-2h2a1 1 0 0 1 1 1z"
                                        fill="#000000" opacity="1" data-original="#000000"></path>
                                    <path
                                        d="M7 45h26a1 1 0 0 0 1-1V28a1 1 0 0 0-1-1H7a1 1 0 0 0-1 1v16a1 1 0 0 0 1 1zm1-2V29.789l11.476 7.063a1 1 0 0 0 1.048 0L32 29.789V43zm2.533-14h18.934L20 34.826zM37 39h2v3a1 1 0 0 0 1 1h17a1 1 0 0 0 1-1V30a1 1 0 0 0-1-1h-1v-3a1 1 0 0 0-1-1H37a1 1 0 0 0-1 1v12a1 1 0 0 0 1 1zm19 2H41V31h15zM38 27h16v2H40a1 1 0 0 0-1 1v7h-1z"
                                        fill="#000000" opacity="1" data-original="#000000"></path>
                                    <path
                                        d="M43 33h2v2h-2zM47 33h7v2h-7zM43 37h4v2h-4zM49 37h5v2h-5zM15.474 17.851a1 1 0 0 0 .973.044l6-3a1 1 0 0 0 0-1.79l-6-3A1 1 0 0 0 15 11v6a1 1 0 0 0 .474.851zM17 12.618 19.764 14 17 15.382z"
                                        fill="#000000" opacity="1" data-original="#000000"></path>
                                </g>
                            </g>
                        </svg>